<svg width="20" height="18" viewBox="0 0 20 18" fill="none" xmlns="http://www.w3.org/2000/svg">
<path d="M19.9948 8.87228C19.9948 9.49734 19.4739 9.98696 18.8836 9.98696H17.7723L17.7967 15.5499C17.8036 16.7827 16.807 17.7828 15.5742 17.7828H4.4483C3.2225 17.7828 2.22588 16.7861 2.22588 15.5604V9.98696H1.11121C0.486152 9.98696 0 9.50081 0 8.87228C0 8.55976 0.104176 8.28195 0.347252 8.03888L9.25079 0.277801C9.49386 0.0347252 9.77166 0 10.0147 0C10.2578 0 10.5356 0.0694503 10.744 0.243076L14.4457 3.49683V2.22241C14.4457 1.60778 14.9422 1.11121 15.5569 1.11121H16.6681C17.2827 1.11121 17.7793 1.60778 17.7793 2.22241V6.42416L19.6128 8.03541C19.8906 8.27848 20.0295 8.55628 19.9948 8.86881V8.87228ZM9.44525 6.66723C9.13967 6.66723 8.88965 6.91725 8.88965 7.22284V8.88965H7.22284C6.91725 8.88965 6.66723 9.13967 6.66723 9.44525V10.5565C6.66723 10.862 6.91725 11.1121 7.22284 11.1121H8.88965V12.7789C8.88965 13.0844 9.13967 13.3345 9.44525 13.3345H10.5565C10.862 13.3345 11.1121 13.0844 11.1121 12.7789V11.1121H12.7789C13.0844 11.1121 13.3345 10.862 13.3345 10.5565V9.44525C13.3345 9.13967 13.0844 8.88965 12.7789 8.88965H11.1121V7.22284C11.1121 6.91725 10.862 6.66723 10.5565 6.66723H9.44525Z" fill="#244E97"/>
</svg>
