<svg width="24" height="28" viewBox="0 0 24 28" fill="none" xmlns="http://www.w3.org/2000/svg">
<path d="M12 13.7143C13.8186 13.7143 15.5628 12.9918 16.8487 11.7059C18.1347 10.4199 18.8571 8.67577 18.8571 6.85714C18.8571 5.03852 18.1347 3.29437 16.8487 2.00841C15.5628 0.722447 13.8186 0 12 0C10.1814 0 8.43723 0.722447 7.15127 2.00841C5.8653 3.29437 5.14286 5.03852 5.14286 6.85714C5.14286 8.67577 5.8653 10.4199 7.15127 11.7059C8.43723 12.9918 10.1814 13.7143 12 13.7143ZM6.85714 16.6714C2.89286 17.8339 0 21.4982 0 25.8375C0 26.7161 0.7125 27.4286 1.59107 27.4286H22.4089C23.2875 27.4286 24 26.7161 24 25.8375C24 21.4982 21.1071 17.8339 17.1429 16.6714V19.3929C18.6214 19.7732 19.7143 21.1179 19.7143 22.7143V24.8571C19.7143 25.3286 19.3286 25.7143 18.8571 25.7143H18C17.5286 25.7143 17.1429 25.3286 17.1429 24.8571C17.1429 24.3857 17.5286 24 18 24V22.7143C18 21.7661 17.2339 21 16.2857 21C15.3375 21 14.5714 21.7661 14.5714 22.7143V24C15.0429 24 15.4286 24.3857 15.4286 24.8571C15.4286 25.3286 15.0429 25.7143 14.5714 25.7143H13.7143C13.2429 25.7143 12.8571 25.3286 12.8571 24.8571V22.7143C12.8571 21.1179 13.95 19.7732 15.4286 19.3929V16.3339C15.1071 16.3018 14.7804 16.2857 14.4482 16.2857H9.55179C9.21964 16.2857 8.89286 16.3018 8.57143 16.3339V19.8375C9.80893 20.2071 10.7143 21.3536 10.7143 22.7143C10.7143 24.3696 9.36964 25.7143 7.71429 25.7143C6.05893 25.7143 4.71429 24.3696 4.71429 22.7143C4.71429 21.3536 5.61964 20.2071 6.85714 19.8375V16.6714ZM7.71429 24C8.05528 24 8.38231 23.8645 8.62342 23.6234C8.86454 23.3823 9 23.0553 9 22.7143C9 22.3733 8.86454 22.0463 8.62342 21.8051C8.38231 21.564 8.05528 21.4286 7.71429 21.4286C7.37329 21.4286 7.04627 21.564 6.80515 21.8051C6.56403 22.0463 6.42857 22.3733 6.42857 22.7143C6.42857 23.0553 6.56403 23.3823 6.80515 23.6234C7.04627 23.8645 7.37329 24 7.71429 24Z" fill="#244E97"/>
</svg>
