<svg width="20" height="22" viewBox="0 0 20 22" fill="none" xmlns="http://www.w3.org/2000/svg">
<path d="M5 11.3125C5 12.6875 5.39583 14.0208 6.1875 15.3125C6.97917 16.6042 8.05208 17.4792 9.40625 17.9375C9.51042 17.9792 9.60917 18.0054 9.7025 18.0163C9.79667 18.0263 9.89583 18.0312 10 18.0312C10.1042 18.0312 10.2033 18.0263 10.2975 18.0163C10.3908 18.0054 10.4896 17.9792 10.5938 17.9375C11.9479 17.4792 13.0208 16.6042 13.8125 15.3125C14.6042 14.0208 15 12.6875 15 11.3125V9.28125C15 8.92708 14.9062 8.59875 14.7188 8.29625C14.5312 7.99458 14.2812 7.76042 13.9688 7.59375L10.8438 6.03125C10.5729 5.90625 10.2917 5.84375 10 5.84375C9.70833 5.84375 9.42708 5.90625 9.15625 6.03125L6.03125 7.59375C5.71875 7.76042 5.46875 7.99458 5.28125 8.29625C5.09375 8.59875 5 8.92708 5 9.28125V11.3125ZM2.5 21.875C1.8125 21.875 1.22417 21.6304 0.735 21.1413C0.245 20.6513 0 20.0625 0 19.375V8.125C0 7.72917 0.0887498 7.35417 0.26625 7C0.442916 6.64583 0.6875 6.35417 1 6.125L8.5 0.5C8.9375 0.166667 9.4375 0 10 0C10.5625 0 11.0625 0.166667 11.5 0.5L19 6.125C19.3125 6.35417 19.5575 6.64583 19.735 7C19.9117 7.35417 20 7.72917 20 8.125V19.375C20 20.0625 19.7554 20.6513 19.2663 21.1413C18.7763 21.6304 18.1875 21.875 17.5 21.875H2.5Z" fill="#244E97"/>
</svg>
