<?xml version="1.0" encoding="UTF-8"?>
<svg id="Layer_1" data-name="Layer 1" xmlns="http://www.w3.org/2000/svg" viewBox="0 0 720.61 239.26">
  <defs>
    <style>
      .cls-1 {
        fill: #00ad33;
      }

      .cls-1, .cls-2 {
        stroke-width: 0px;
      }

      .cls-2 {
        fill: #2645b3;
      }

      .cls-3 {
        fill: #093;
        font-family: Poppins-Medium, Poppins;
        font-size: 50.23px;
        font-weight: 500;
      }
    </style>
  </defs>
  <g>
    <path class="cls-2" d="M256.5,65.32v14.77h23.85v12.87h-23.85v15.67h26.84v13.67h-43.91V51.75h43.91v13.57h-26.84Z"/>
    <path class="cls-2" d="M310.08,48.46v73.84h-17.06V48.46h17.06Z"/>
    <path class="cls-2" d="M360.58,80.19v14.17h-44.01v-14.17h44.01Z"/>
    <path class="cls-2" d="M413.22,71.21c4.22,3.53,6.87,8.18,7.93,13.97h-15.97c-.47-2.26-1.51-4.04-3.14-5.34-1.63-1.3-3.68-1.95-6.14-1.95-1.93,0-3.39.42-4.39,1.25-1,.83-1.5,2.01-1.5,3.54,0,1.73.91,3.03,2.74,3.89,1.83.87,4.71,1.73,8.63,2.59,4.26,1,7.75,2.01,10.48,3.04,2.73,1.03,5.09,2.71,7.08,5.04,2,2.33,2.99,5.46,2.99,9.38,0,3.19-.87,6.02-2.59,8.48-1.73,2.46-4.23,4.39-7.48,5.79-3.26,1.4-7.12,2.1-11.58,2.1-7.52,0-13.54-1.66-18.06-4.99-4.52-3.33-7.28-8.08-8.28-14.27h16.47c.27,2.39,1.28,4.23,3.04,5.49,1.76,1.26,4.04,1.9,6.84,1.9,1.93,0,3.39-.45,4.39-1.35s1.5-2.08,1.5-3.54c0-1.93-.92-3.31-2.74-4.14-1.83-.83-4.81-1.71-8.93-2.64-4.13-.86-7.52-1.8-10.18-2.79-2.66-1-4.96-2.61-6.89-4.84-1.93-2.23-2.89-5.27-2.89-9.13,0-4.99,1.9-9.03,5.69-12.12,3.79-3.09,9.15-4.64,16.07-4.64s12.69,1.76,16.91,5.29Z"/>
    <path class="cls-2" d="M481.97,72.4c3.76,4.26,5.64,10.11,5.64,17.56v32.33h-17.06v-30.34c0-3.72-.98-6.64-2.94-8.73-1.96-2.1-4.57-3.14-7.83-3.14-3.46,0-6.2,1.1-8.23,3.29-2.03,2.2-3.04,5.32-3.04,9.38v29.54h-17.06V48.46h17.06v28.34c1.6-3.33,3.97-5.95,7.14-7.88,3.16-1.93,6.87-2.89,11.13-2.89,6.39,0,11.46,2.13,15.22,6.39Z"/>
    <path class="cls-2" d="M531.01,68.81c3.06,1.93,5.32,4.56,6.79,7.88v-10.08h16.96v55.68h-16.96v-10.08c-1.46,3.33-3.73,5.95-6.79,7.88-3.06,1.93-6.72,2.89-10.98,2.89-4.59,0-8.7-1.15-12.32-3.44-3.63-2.29-6.49-5.6-8.58-9.93-2.1-4.32-3.14-9.38-3.14-15.17s1.05-10.93,3.14-15.22,4.95-7.58,8.58-9.88c3.63-2.29,7.73-3.44,12.32-3.44,4.26,0,7.92.97,10.98,2.89ZM516.7,84.48c-2.23,2.39-3.34,5.72-3.34,9.98s1.11,7.58,3.34,9.98c2.23,2.39,5.17,3.59,8.83,3.59s6.54-1.23,8.83-3.69c2.29-2.46,3.44-5.75,3.44-9.88s-1.15-7.5-3.44-9.93c-2.29-2.43-5.24-3.64-8.83-3.64s-6.6,1.2-8.83,3.59Z"/>
    <path class="cls-2" d="M598.67,68.81c3.06,1.93,5.29,4.56,6.69,7.88v-28.24h17.06v73.84h-17.06v-10.08c-1.4,3.33-3.63,5.95-6.69,7.88-3.06,1.93-6.72,2.89-10.98,2.89-4.59,0-8.7-1.15-12.32-3.44-3.63-2.29-6.49-5.6-8.58-9.93-2.1-4.32-3.14-9.38-3.14-15.17s1.05-10.93,3.14-15.22c2.1-4.29,4.95-7.58,8.58-9.88,3.63-2.29,7.73-3.44,12.32-3.44,4.26,0,7.92.97,10.98,2.89ZM584.35,84.48c-2.23,2.39-3.34,5.72-3.34,9.98s1.11,7.58,3.34,9.98c2.23,2.39,5.17,3.59,8.83,3.59s6.54-1.23,8.83-3.69c2.3-2.46,3.44-5.75,3.44-9.88s-1.15-7.5-3.44-9.93c-2.29-2.43-5.24-3.64-8.83-3.64s-6.6,1.2-8.83,3.59Z"/>
    <path class="cls-2" d="M666.33,68.81c3.06,1.93,5.32,4.56,6.79,7.88v-10.08h16.96v55.68h-16.96v-10.08c-1.46,3.33-3.73,5.95-6.79,7.88-3.06,1.93-6.72,2.89-10.98,2.89-4.59,0-8.7-1.15-12.32-3.44-3.63-2.29-6.49-5.6-8.58-9.93-2.1-4.32-3.14-9.38-3.14-15.17s1.05-10.93,3.14-15.22c2.1-4.29,4.95-7.58,8.58-9.88,3.63-2.29,7.73-3.44,12.32-3.44,4.26,0,7.92.97,10.98,2.89ZM652.01,84.48c-2.23,2.39-3.34,5.72-3.34,9.98s1.11,7.58,3.34,9.98c2.23,2.39,5.17,3.59,8.83,3.59s6.54-1.23,8.83-3.69c2.3-2.46,3.44-5.75,3.44-9.88s-1.15-7.5-3.44-9.93c-2.29-2.43-5.24-3.64-8.83-3.64s-6.6,1.2-8.83,3.59Z"/>
    <path class="cls-2" d="M703.05,44.51c1.86-1.7,4.32-2.54,7.38-2.54s5.52.85,7.38,2.54c1.86,1.7,2.79,3.84,2.79,6.44s-.93,4.64-2.79,6.34c-1.86,1.7-4.33,2.54-7.38,2.54s-5.52-.85-7.38-2.54c-1.86-1.7-2.79-3.81-2.79-6.34s.93-4.74,2.79-6.44ZM718.92,66.62v55.68h-17.06v-55.68h17.06Z"/>
  </g>
  <g>
    <polyline class="cls-2" points="143.31 0 143.31 47.82 47.79 47.89 47.79 48.15 47.71 48.15 47.71 95.94 95.6 95.94 95.6 143.66 47.71 143.66 47.71 191.54 143.31 191.54 143.31 239.26 0 239.26 0 48.06 .07 48.06 .07 .44"/>
    <rect class="cls-1" x="143.31" y="95.9" width="47.71" height="47.93"/>
    <rect class="cls-1" x="95.6" y="143.61" width="47.71" height="47.93"/>
    <rect class="cls-1" x="95.6" y="47.82" width="47.71" height="48.07"/>
  </g>
  <text class="cls-3" transform="translate(238.17 172.46)"><tspan x="0" y="0">Hospital</tspan></text>
</svg>