<svg width="20" height="18" viewBox="0 0 20 18" fill="none" xmlns="http://www.w3.org/2000/svg">
<path d="M18.8836 9.98696C19.4739 9.98696 19.9948 9.50081 19.9948 8.87228C20.0295 8.55976 19.8906 8.28195 19.6128 8.03888L10.7474 0.243076C10.5391 0.0694503 10.2613 0 10.0182 0C9.77514 0 9.49734 0.0347252 9.25426 0.277801L0.347252 8.03888C0.104176 8.28195 0 8.55976 0 8.87228C0 9.49734 0.486152 9.98696 1.11121 9.98696H2.22241V15.5569C2.22241 16.7827 3.21902 17.7793 4.44482 17.7793H15.5742C16.807 17.7793 17.8036 16.7792 17.7967 15.5465L17.7723 9.98349H18.8836V9.98696ZM8.88965 7.22284C8.88965 6.91725 9.13967 6.66723 9.44525 6.66723H10.5565C10.862 6.66723 11.1121 6.91725 11.1121 7.22284V8.88964H12.7789C13.0844 8.88964 13.3345 9.13967 13.3345 9.44525V10.5565C13.3345 10.862 13.0844 11.1121 12.7789 11.1121H11.1121V12.7789C11.1121 13.0844 10.862 13.3345 10.5565 13.3345H9.44525C9.13967 13.3345 8.88965 13.0844 8.88965 12.7789V11.1121H7.22284C6.91726 11.1121 6.66723 10.862 6.66723 10.5565V9.44525C6.66723 9.13967 6.91726 8.88964 7.22284 8.88964H8.88965V7.22284Z" fill="#244E97"/>
</svg>
