<svg width="20" height="20" viewBox="0 0 20 20" fill="none" xmlns="http://www.w3.org/2000/svg">
<path d="M4.18182 0.828123C4.39394 1.46449 4.04924 2.15009 3.41667 2.36221L2.42424 2.69176V7.2713C2.42424 9.27888 4.05303 10.9077 6.06061 10.9077C8.06818 10.9077 9.69697 9.27888 9.69697 7.2713V2.69176L8.70833 2.36221C8.07197 2.15009 7.73106 1.46449 7.94318 0.828123C8.1553 0.19176 8.84091 -0.149149 9.47727 0.0629719L10.4659 0.392517C11.4545 0.722063 12.1212 1.6463 12.1212 2.69176V7.2713C12.1212 10.1955 10.053 12.6349 7.29924 13.2069C7.53788 15.3243 9.33333 16.9683 11.5152 16.9683C13.8598 16.9683 15.7576 15.0705 15.7576 12.7259V10.0478C14.6856 9.58191 13.9394 8.51373 13.9394 7.2713C13.9394 5.59706 15.2955 4.241 16.9697 4.241C18.6439 4.241 20 5.59706 20 7.2713C20 8.51373 19.2538 9.58191 18.1818 10.0478V12.7259C18.1818 16.4077 15.197 19.3925 11.5152 19.3925C7.99621 19.3925 5.11742 16.669 4.86742 13.2145C2.09091 12.6577 0 10.2107 0 7.2713V2.69176C0 1.65009 0.666667 0.722063 1.65909 0.392517L2.64773 0.0629719C3.28409 -0.149149 3.9697 0.195548 4.18182 0.828123ZM16.9697 8.48343C17.2912 8.48343 17.5995 8.35572 17.8268 8.1284C18.0541 7.90109 18.1818 7.59278 18.1818 7.2713C18.1818 6.94983 18.0541 6.64152 17.8268 6.41421C17.5995 6.18689 17.2912 6.05918 16.9697 6.05918C16.6482 6.05918 16.3399 6.18689 16.1126 6.41421C15.8853 6.64152 15.7576 6.94983 15.7576 7.2713C15.7576 7.59278 15.8853 7.90109 16.1126 8.1284C16.3399 8.35572 16.6482 8.48343 16.9697 8.48343Z" fill="#244E97"/>
</svg>
