<svg width="20" height="20" viewBox="0 0 20 20" fill="none" xmlns="http://www.w3.org/2000/svg">
<path d="M15.5556 8.88889C15.9333 8.88889 16.3 8.93333 16.6667 8.98889V3.63333L8.33333 0L0 3.63333V9.08889C0 14.1333 3.55556 18.8556 8.33333 20C8.94444 19.8556 9.53333 19.6444 10.1111 19.3889C9.34444 18.3 8.88889 16.9778 8.88889 15.5556C8.88889 11.8778 11.8778 8.88889 15.5556 8.88889Z" fill="#244E97"/>
<path d="M15.5556 11.1113C13.1 11.1113 11.1111 13.1002 11.1111 15.5558C11.1111 18.0113 13.1 20.0002 15.5556 20.0002C18.0111 20.0002 20 18.0113 20 15.5558C20 13.1002 18.0111 11.1113 15.5556 11.1113ZM15.5556 12.6447C16.2444 12.6447 16.8 13.2113 16.8 13.8891C16.8 14.5669 16.2333 15.1336 15.5556 15.1336C14.8778 15.1336 14.3111 14.5669 14.3111 13.8891C14.3111 13.2113 14.8667 12.6447 15.5556 12.6447ZM15.5556 18.6113C14.5222 18.6113 13.6222 18.1002 13.0667 17.3113C13.1222 16.5113 14.7444 16.1113 15.5556 16.1113C16.3667 16.1113 17.9889 16.5113 18.0444 17.3113C17.4889 18.1002 16.5889 18.6113 15.5556 18.6113Z" fill="#244E97"/>
</svg>
