<svg width="20" height="19" viewBox="0 0 20 19" fill="none" xmlns="http://www.w3.org/2000/svg">
<path d="M7.1875 1.875H12.8125C12.9844 1.875 13.125 2.01562 13.125 2.1875V3.75H6.875V2.1875C6.875 2.01562 7.01562 1.875 7.1875 1.875ZM5 2.1875V3.75H2.5C1.12109 3.75 0 4.87109 0 6.25V16.25C0 17.6289 1.12109 18.75 2.5 18.75H17.5C18.8789 18.75 20 17.6289 20 16.25V6.25C20 4.87109 18.8789 3.75 17.5 3.75H15V2.1875C15 0.980469 14.0195 0 12.8125 0H7.1875C5.98047 0 5 0.980469 5 2.1875ZM8.75 8.125C8.75 7.78125 9.03125 7.5 9.375 7.5H10.625C10.9688 7.5 11.25 7.78125 11.25 8.125V10H13.125C13.4688 10 13.75 10.2812 13.75 10.625V11.875C13.75 12.2188 13.4688 12.5 13.125 12.5H11.25V14.375C11.25 14.7188 10.9688 15 10.625 15H9.375C9.03125 15 8.75 14.7188 8.75 14.375V12.5H6.875C6.53125 12.5 6.25 12.2188 6.25 11.875V10.625C6.25 10.2812 6.53125 10 6.875 10H8.75V8.125Z" fill="#244E97"/>
</svg>
