<svg width="20" height="19" viewBox="0 0 20 19" fill="none" xmlns="http://www.w3.org/2000/svg">
<path d="M8.42493 5.51719C7.48499 6.05992 6.85181 7.07852 6.85181 8.24263H1.18855C0.492443 8.24263 -0.0778152 7.67631 0.00870671 6.98806C0.350862 4.23116 1.80994 1.82034 3.91399 0.219687C4.46852 -0.201124 5.24328 0.0112482 5.59331 0.612969L8.42493 5.51719ZM9.99806 11.3889C10.5723 11.3889 11.1071 11.2355 11.5712 10.9681L14.4028 15.8762C14.7489 16.4779 14.5483 17.2566 13.9073 17.5241C12.7038 18.0314 11.3824 18.3106 9.99806 18.3106C8.61371 18.3106 7.28835 18.0314 6.08884 17.5241C5.44779 17.2527 5.24722 16.4779 5.59331 15.8762L8.42493 10.9681C8.889 11.2355 9.42387 11.3889 9.99806 11.3889ZM18.8076 8.24263H13.1443C13.1443 7.07852 12.5111 6.05992 11.5712 5.51719L14.4028 0.612969C14.7489 0.0112482 15.5276 -0.201124 16.0821 0.219687C18.1901 1.82034 19.6453 4.23116 19.9913 6.98806C20.0779 7.67631 19.5037 8.24263 18.8115 8.24263H18.8076ZM9.99806 6.35488C10.4987 6.35488 10.9789 6.55377 11.3329 6.90779C11.6869 7.26181 11.8858 7.74197 11.8858 8.24263C11.8858 8.74329 11.6869 9.22345 11.3329 9.57747C10.9789 9.93149 10.4987 10.1304 9.99806 10.1304C9.4974 10.1304 9.01724 9.93149 8.66322 9.57747C8.30919 9.22345 8.11031 8.74329 8.11031 8.24263C8.11031 7.74197 8.30919 7.26181 8.66322 6.90779C9.01724 6.55377 9.4974 6.35488 9.99806 6.35488Z" fill="#244E97"/>
</svg>
