<svg width="20" height="24" viewBox="0 0 20 24" fill="none" xmlns="http://www.w3.org/2000/svg">
<path d="M14.397 2.15955C14.397 1.5868 14.6245 1.03751 15.0295 0.632517C15.4345 0.227523 15.9838 0 16.5565 0C17.1293 0 17.6786 0.227523 18.0836 0.632517C18.4886 1.03751 18.7161 1.5868 18.7161 2.15955C18.7161 2.7323 18.4886 3.28159 18.0836 3.68658C17.6786 4.09157 17.1293 4.3191 16.5565 4.3191C15.9838 4.3191 15.4345 4.09157 15.0295 3.68658C14.6245 3.28159 14.397 2.7323 14.397 2.15955ZM9.20058 5.45736C8.95763 5.34488 8.67419 5.37188 8.46273 5.53384L6.62262 6.91505C5.98825 7.39196 5.08394 7.26148 4.60704 6.62712C4.13014 5.99275 4.26061 5.08844 4.89498 4.61154L6.73509 3.23033C7.80137 2.42949 9.22307 2.28552 10.4288 2.8524L14.496 4.7645C15.8052 5.38088 16.1516 7.08602 15.1798 8.16129L13.4567 10.0779H17.8388C19.202 10.0779 20.2233 11.3241 19.9578 12.6604L18.6891 18.9995C18.5316 19.7779 17.7758 20.2863 16.993 20.1288C16.2101 19.9713 15.7062 19.2155 15.8637 18.4326L16.9615 12.9573H13.7986C14.1855 13.8391 14.397 14.8109 14.397 15.8367C14.397 19.8139 11.1757 23.0352 7.1985 23.0352C3.22133 23.0352 0 19.8139 0 15.8367C0 11.8595 3.22133 8.6382 7.1985 8.6382C7.69789 8.6382 8.18829 8.68769 8.65619 8.78666L11.0947 6.34817L9.20058 5.45736ZM7.1985 20.1558C7.76569 20.1558 8.32733 20.0441 8.85134 19.827C9.37536 19.61 9.85149 19.2918 10.2526 18.8908C10.6536 18.4897 10.9718 18.0136 11.1888 17.4895C11.4059 16.9655 11.5176 16.4039 11.5176 15.8367C11.5176 15.2695 11.4059 14.7079 11.1888 14.1838C10.9718 13.6598 10.6536 13.1837 10.2526 12.7826C9.85149 12.3816 9.37536 12.0634 8.85134 11.8464C8.32733 11.6293 7.76569 11.5176 7.1985 11.5176C6.6313 11.5176 6.06967 11.6293 5.54565 11.8464C5.02163 12.0634 4.5455 12.3816 4.14443 12.7826C3.74337 13.1837 3.42523 13.6598 3.20817 14.1838C2.99112 14.7079 2.8794 15.2695 2.8794 15.8367C2.8794 16.4039 2.99112 16.9655 3.20817 17.4895C3.42523 18.0136 3.74337 18.4897 4.14443 18.8908C4.5455 19.2918 5.02163 19.61 5.54565 19.827C6.06967 20.0441 6.6313 20.1558 7.1985 20.1558Z" fill="#244E97"/>
</svg>
